<?xml version="1.0" encoding="UTF-8"?>
<!DOCTYPE svg PUBLIC "-//W3C//DTD SVG 1.1//EN" "http://www.w3.org/Graphics/SVG/1.1/DTD/svg11.dtd">
<svg version="1.1" xmlns="http://www.w3.org/2000/svg" xmlns:xlink="http://www.w3.org/1999/xlink" x="0" y="0" width="605" height="755" viewBox="0, 0, 605, 755">
  <g id="Layer_1">
    <path d="M13.315,668.2 C13.315,668.2 3.315,665.7 3.49,665.28 C3.985,635.91 5.47,603.395 9.125,579.49 C16.355,532.2 23.6,526.09 40.37,516.055 C70.565,497.995 141,472.305 141,472.305 C141,472.305 154.125,453.555 169.75,448.555 L213.5,446.68 C230.995,451.68 241.935,471.37 241.935,471.37 C241.935,471.37 302.895,489.29 336.645,504.91 C336.645,504.91 356.785,521.115 368.085,542.825 C372.125,550.59 401.645,619.91 401.645,619.91 L323.06,675.63 L312.48,743.87 L35.395,744.285 L13.315,668.2" fill="#FFFFFE"/>
    <path d="M163.655,467.15 L167.395,464.68 C172.07,457.18 173.635,443.305 174.15,436.135 L209.255,435.8 C209.74,442.87 211.285,457.06 216.035,464.68 L220.375,467.62 C220.375,467.62 206.415,504.91 189.96,504.91 C173.5,504.91 160.27,471.47 163.655,467.15" fill="#F8D2B5"/>
    <path d="M172.325,444.21 L211.885,444.21 L211.885,453.59 C211.885,453.59 199.81,471.865 168.925,465.615 L172.325,444.21" fill="#DB9D88"/>
    <path d="M61.23,661.945 C63.73,662.28 72.34,751.5 72.34,751.5 L311.31,751.5 L329.98,633.87 C271.23,689.7 126.645,698.195 61.23,661.945" fill="#D7E2EC"/>
    <path d="M12.895,668.195 L64.145,685.07 L72.34,751.5 L18.175,751.5 L12.895,668.195" fill="#F8D2B5"/>
    <path d="M12.895,668.195 L14.145,681.53 L67.48,713.195 L60.815,684.03 L12.895,668.195" fill="#DB9D88"/>
    <path d="M486.72,557.41 C486.72,557.41 431.72,715.535 400.47,738.035 C393.565,743.01 375.46,746.73 361.735,728.295 C352.385,715.74 334.55,667.885 334.55,667.885 L391.195,628.87 L397.14,645.95 L444.22,548.66 L486.72,557.41" fill="#F8D2B5"/>
    <path d="M335.62,668.685 L345.4,696.29 C345.4,696.29 361.72,662.675 396.065,643.85 L389.845,625.8 C389.845,625.8 370.985,628.8 335.62,668.685" fill="#CF957E"/>
    <g>
      <path d="M169.75,448.555 C154.125,453.555 141,472.305 141,472.305 C141,472.305 70.565,497.995 40.37,516.055 C23.6,526.09 16.355,532.2 9.125,579.49 C5.495,603.22 4.01,635.43 3.5,664.63 L62.27,685.07" fill-opacity="0" stroke="#1A1919" stroke-width="7" stroke-linecap="round" stroke-linejoin="round"/>
      <path d="M48.915,581.16 L72.34,751.5 M336.415,588.66 L311.31,751.5" fill-opacity="0" stroke="#1A1919" stroke-width="6" stroke-linecap="round" stroke-linejoin="round"/>
    </g>
    <path d="M252.245,588.24 L319.12,588.24 L319.12,638.865 L252.245,638.865 z" fill="#FFFFFE"/>
    <path d="M252.245,588.24 L319.12,588.24 L319.12,638.865 L252.245,638.865 z" fill-opacity="0" stroke="#1A1919" stroke-width="6" stroke-linecap="round" stroke-linejoin="round"/>
    <path d="M260.995,596.99 L309.745,596.99 L309.745,605.115 L260.995,605.115 z" fill="#B4B5B4"/>
    <g>
      <path d="M200.785,558.895 C200.785,563.835 196.78,567.835 191.845,567.835 C186.91,567.835 182.905,563.835 182.905,558.895 C182.905,553.965 186.91,549.96 191.845,549.96 C196.78,549.96 200.785,553.965 200.785,558.895 z" fill-opacity="0" stroke="#1A1919" stroke-width="5"/>
      <path d="M12.895,667.78 L18.175,751.5 M487.43,562.04 C474.1,593.08 426.01,707.335 413.575,724.28 C397.97,745.535 377.685,750.59 363.055,730.27 C353.26,718.29 334.995,669.505 334.995,669.505 M214.565,448.555 C230.19,453.555 243.31,472.305 243.31,472.305 C243.31,472.305 300.32,489.06 314.12,493.21 C326.02,496.79 342.895,506.475 355.085,522.1 C365.42,535.355 402.06,620.95 402.06,620.95 C402.06,620.95 391.13,622.375 372.275,635.655 C354.76,647.995 322.57,679.795 322.57,679.795 M383.3,669.075 C401.72,639.285 448.495,541.06 448.495,541.06 M390.665,629.94 C390.665,629.94 391.575,637.23 395.74,644.73" fill-opacity="0" stroke="#1A1919" stroke-width="7" stroke-linecap="round" stroke-linejoin="round"/>
      <path d="M481.545,564.08 C481.545,564.08 509.5,558.64 549.785,523.915 C549.785,523.915 575.04,508.725 594.6,499.02 C607.475,492.625 588.805,489.285 588.805,489.285 C588.805,489.285 596.835,488.27 595.94,483.795 C594.695,477.59 584.1,477.89 584.1,477.89 C584.1,477.89 587.265,473.575 581.975,470.36 C576.74,467.215 567.98,469.12 567.98,469.12 C567.98,469.12 570.165,464.155 564.885,462.08 C552.555,457.205 515.45,470.58 493.23,490.34 L486.76,490.59 C488.28,488.12 489.31,482.81 489.68,479.845 C491.045,468.865 489.755,466.025 486.29,464.915 C482.805,463.765 476.69,468 472.69,473.585 C468.69,479.18 458.705,491.835 454.03,496.72 C450.46,500.475 437.715,518.225 439.735,536.465 L444.455,554.555 L481.545,564.08" fill="#F8D2B5"/>
      <path d="M472.94,565.145 C472.94,565.145 508.83,563.385 550.52,525.43 C550.52,525.43 575.155,511.385 593.075,498.325 C606.015,488.895 588.84,488.125 588.84,488.125 C588.84,488.125 597.43,488.15 596.435,483.66 C595.02,477.35 584.335,477.885 584.335,477.885 C584.335,477.885 587.395,473.45 581.935,470.315 C576.57,467.235 567.705,469.365 567.705,469.365 C567.705,469.365 569.74,464.3 564.345,462.31 C551.71,457.64 519.405,469.11 492.865,489.375 L486.135,490.37 M447.55,556.935 C430.87,533.44 448.025,505.12 452.665,500.025 C457.275,494.945 468.83,481.9 473.005,476.335 C478.005,469.67 481.62,463.76 485.155,464.84 C488.71,465.9 490.73,468.58 488.19,479.51 C486.24,487.87 476.44,501.49 476.44,501.49 C476.44,501.49 482.72,517.435 478.32,531.94" fill-opacity="0" stroke="#1A1919" stroke-width="7" stroke-linecap="round" stroke-linejoin="round"/>
      <path d="M494.295,489.8 C494.295,489.8 520.18,491.98 546.065,516.895 M589.16,487.83 C589.16,487.83 562.94,494.16 541.845,510.41 M584.61,477.925 C584.61,477.925 558.79,480.25 525.75,501.15 M568.25,469.085 C567.665,469.13 539.23,471.495 513.49,494.11" fill-opacity="0" stroke="#1A1919" stroke-width="6" stroke-linecap="round" stroke-linejoin="round"/>
      <path d="M210.645,436.135 C211.2,443.305 212.89,457.18 217.93,464.68 C217.93,464.68 220.645,494.445 191.705,504.91 C162.77,494.445 165.48,464.68 165.48,464.68 C170.525,457.18 172.215,443.305 172.765,436.135 M141,472.305 C141,472.305 123.775,515.235 134.77,535.695 C148.21,560.695 183.52,533.82 191.705,504.91 M242.41,472.305 C242.41,472.305 259.64,515.235 248.645,535.695 C235.205,560.695 199.895,533.82 191.705,504.91" fill-opacity="0" stroke="#1A1919" stroke-width="7" stroke-linecap="round" stroke-linejoin="round"/>
      <path d="M227.395,437.6 C355.77,413.905 369.405,263.25 369.405,263.25 C390.78,149.54 305.52,24.535 257.04,30.865 C243.625,7.97 193.185,-2.55 143.985,15.4 C94.79,33.34 -14.45,113.04 13.79,263.25 C13.79,263.25 32.375,429.22 155.795,437.6" fill="#73453C"/>
      <path d="M153.26,38.67 C200.76,20.735 249.45,31.25 262.4,54.14 C274.78,46.525 329.33,76.04 354.835,139.425 C334.025,60.28 268.59,22.73 254.79,31.21 C241.84,8.32 193.15,-2.195 145.65,15.745 C98.155,33.685 -15.37,102.78 11.885,253 L15.835,261.58 C3.97,119.475 107.885,55.81 153.26,38.67" fill="#CA9F8D"/>
    </g>
    <path d="M91.74,55.37 C91.74,55.37 136.09,89.355 203.215,82.245 C203.215,82.245 222.84,85.45 188.72,91.31 C154.59,97.2 94.21,98.18 70.9,86.535 L91.74,55.37" fill="#CA9F8D"/>
    <path d="M49.85,270.335 C53.315,312.4 66.6,358.795 85.82,385.125 C114.615,424.545 168.475,446.755 191.705,446.755 C214.935,446.755 268.8,424.545 297.59,385.125 C315.94,359.985 328.68,316.25 332.73,278.03 C294.815,222.89 254.11,133.565 257.285,103.14 C257.285,103.14 229.51,197.455 149.055,211.855 C149.055,211.855 202.735,175.415 203.96,130.09 C203.96,130.09 166.79,206.04 88.6,215.225 C88.6,215.225 129.225,168.675 126.17,138.665 C126.17,138.665 71.05,173.575 49.85,270.335" fill="#F8D2B5"/>
    <path d="M163.855,261.58 C163.855,280.9 149.41,296.58 131.595,296.58 C113.77,296.58 99.335,280.9 99.335,261.58 C99.335,242.235 113.77,226.575 131.595,226.575 C149.41,226.575 163.855,242.235 163.855,261.58" fill="#FFFFFE"/>
    <path d="M99.04,255.84 C99.04,255.84 102.435,233.675 125.51,227.53 C152.515,220.325 159.44,244.765 159.44,244.765 C159.44,244.765 145.375,235.39 128.63,239.22 C112.83,242.835 99.04,255.84 99.04,255.84" fill="#D8E9F1"/>
    <path d="M219.565,261.58 C219.565,280.9 234.005,296.58 251.82,296.58 C269.65,296.58 284.08,280.9 284.08,261.58 C284.08,242.235 269.65,226.575 251.82,226.575 C234.005,226.575 219.565,242.235 219.565,261.58" fill="#FFFFFE"/>
    <path d="M284.375,255.84 C284.375,255.84 280.985,233.675 257.9,227.53 C230.9,220.325 223.975,244.765 223.975,244.765 C223.975,244.765 238.035,235.39 254.79,239.22 C270.585,242.835 284.375,255.84 284.375,255.84" fill="#D8E9F1"/>
    <path d="M70.775,311.94 C70.775,318.225 80.815,323.31 93.195,323.31 C105.57,323.31 115.615,318.225 115.615,311.94 C115.615,305.665 105.57,300.575 93.195,300.575 C80.815,300.575 70.775,305.665 70.775,311.94" fill="#ED9E99"/>
    <path d="M269.6,311.94 C269.6,318.225 279.64,323.31 292.02,323.31 C304.4,323.31 314.445,318.225 314.445,311.94 C314.445,305.665 304.4,300.575 292.02,300.575 C279.64,300.575 269.6,305.665 269.6,311.94" fill="#ED9E99"/>
    <path d="M191.625,325.115 L191.625,317.83" fill-opacity="0" stroke="#1A1919" stroke-width="7" stroke-linecap="round" stroke-linejoin="round"/>
    <path d="M225.4,200.325 C225.4,200.325 257.285,177.05 277.355,205.125" fill-opacity="0" stroke="#1A1919" stroke-width="6" stroke-linecap="round" stroke-linejoin="round"/>
    <path d="M160.68,246.76 C160.68,246.76 152.195,218.2 125.7,224.91 C96.735,232.265 99.12,271.795 99.12,271.795" fill-opacity="0" stroke="#1A1919" stroke-width="7" stroke-linecap="round" stroke-linejoin="round"/>
    <path d="M98.045,261.3 L88.6,259.075" fill-opacity="0" stroke="#1A1919" stroke-width="6" stroke-linecap="round" stroke-linejoin="round"/>
    <path d="M222.735,246.76 C222.735,246.76 231.22,218.2 257.715,224.91 C286.68,232.265 284.295,271.795 284.295,271.795" fill-opacity="0" stroke="#1A1919" stroke-width="7" stroke-linecap="round" stroke-linejoin="round"/>
    <g>
      <path d="M285.37,261.3 L294.815,259.075" fill-opacity="0" stroke="#1A1919" stroke-width="6" stroke-linecap="round" stroke-linejoin="round"/>
      <path d="M244.09,430.245 C360.975,397.35 369.405,263.25 369.405,263.25 C390.78,149.54 305.52,24.535 257.04,30.865 C243.625,7.97 193.185,-2.55 143.985,15.4 C94.79,33.34 -14.45,113.04 13.79,263.25 C13.79,263.25 26.06,411.095 144.465,432.69" fill-opacity="0" stroke="#1A1919" stroke-width="7" stroke-linecap="round" stroke-linejoin="round"/>
    </g>
    <path d="M155.475,264.085 C155.475,279.12 148.175,291.32 139.185,291.32 C130.19,291.32 122.885,279.12 122.885,264.085 C122.885,249.015 130.19,236.815 139.185,236.815 C148.175,236.815 155.475,249.015 155.475,264.085" fill="#1A1919"/>
    <path d="M154.835,253.92 C154.835,257.15 152.25,259.755 149.05,259.755 C145.855,259.755 143.27,257.15 143.27,253.92 C143.27,250.685 145.855,248.065 149.05,248.065 C152.25,248.065 154.835,250.685 154.835,253.92" fill="#FFFFFE"/>
    <path d="M227.95,264.085 C227.95,279.12 235.245,291.32 244.235,291.32 C253.23,291.32 260.53,279.12 260.53,264.085 C260.53,249.015 253.23,236.815 244.235,236.815 C235.245,236.815 227.95,249.015 227.95,264.085" fill="#1A1919"/>
    <path d="M259.895,253.92 C259.895,257.15 257.305,259.755 254.1,259.755 C250.92,259.755 248.33,257.15 248.33,253.92 C248.33,250.685 250.92,248.065 254.1,248.065 C257.305,248.065 259.895,250.685 259.895,253.92" fill="#FFFFFE"/>
    <path d="M49.85,270.335 C53.315,312.4 66.6,358.795 85.82,385.125 C114.615,424.545 168.475,446.755 191.705,446.755 C214.935,446.755 268.8,424.545 297.59,385.125 C315.94,359.985 328.68,316.25 332.73,278.03 C294.815,226.575 254.11,133.565 257.285,103.14 C257.285,103.14 229.51,197.455 149.055,211.855 C149.055,211.855 202.735,175.415 203.96,130.09 C203.96,130.09 166.79,206.04 88.6,215.225 C88.6,215.225 129.225,168.675 126.17,138.665 C126.17,138.665 71.05,173.575 49.85,270.335 z" fill-opacity="0" stroke="#1A1919" stroke-width="7" stroke-linecap="round" stroke-linejoin="round"/>
    <path d="M149.85,344.7 C158.53,350.88 177.79,355.41 191.625,355.41 L191.355,355.41 C205.185,355.41 224.445,350.88 233.125,344.7 C233.125,344.7 219.77,414.305 191.08,414.305 C162.39,414.305 149.85,344.7 149.85,344.7" fill="#DE737E"/>
    <path d="M160.365,379.795 C168.89,372.645 179.2,368.45 190.325,368.45 C202.24,368.45 213.2,373.3 222.045,381.405 C228.86,362.46 233.125,344.7 233.125,344.7 C233.58,344.62 205.31,350.46 191.48,350.49 C177.67,350.46 149.85,344.7 149.85,344.7 C149.85,344.7 153.875,361.465 160.365,379.795" fill="#C35953"/>
    <path d="M191.895,414.68 C165.535,414.68 149.85,344.7 149.85,344.7 C149.85,344.7 163.91,350.49 191.625,350.49 C219.34,350.49 233.125,344.7 233.125,344.7 C233.125,344.7 218.245,414.68 191.895,414.68 z" fill-opacity="0" stroke="#1A1919" stroke-width="6" stroke-linecap="round" stroke-linejoin="round"/>
  </g>
</svg>
